<svg width="32" height="32" fill="none" xmlns="http://www.w3.org/2000/svg"><g clip-path="url(#a)"><path d="M24 0H8a8 8 0 0 0-8 8v16a8 8 0 0 0 8 8h16a8 8 0 0 0 8-8V8a8 8 0 0 0-8-8Z" fill="#EEE"/></g><path fill-rule="evenodd" clip-rule="evenodd" d="M26 16c0 1.916-.393 3.727-1.091 5.333h-8.753c1.616-2.514 3.282-5.56 3.282-8.666 0-3.999-2.666-7.365-6.29-8.365A9.279 9.279 0 0 1 15.5 4C21.299 4 26 9.373 26 16Zm-9.188-3.333c0-3.314-2.644-6-5.906-6C6.542 6.667 5 12.338 5 16c0 6.627 4.701 12 10.5 12 3.11 0 5.904-1.545 7.826-4h-12.42c.231-.3.473-.607.721-.924 2.308-2.942 5.185-6.61 5.185-10.41Z" fill="#7859CF"/><defs><clipPath id="a"><path fill="#fff" d="M0 0h32v32H0z"/></clipPath></defs></svg>