<svg width="32" height="32" viewBox="0 0 32 32" fill="none" xmlns="http://www.w3.org/2000/svg">
<g clip-path="url(#clip0_5504_2481)">
<path d="M24 0H8C3.58172 0 0 3.58172 0 8V24C0 28.4183 3.58172 32 8 32H24C28.4183 32 32 28.4183 32 24V8C32 3.58172 28.4183 0 24 0Z" fill="#EEEEEE"/>
</g>
<path fill-rule="evenodd" clip-rule="evenodd" d="M26 16C26 17.9158 25.6072 19.7267 24.9086 21.3333H16.1563C17.7724 18.8188 19.4375 15.7738 19.4375 12.6667C19.4375 8.66824 16.7721 5.30224 13.1478 4.30226C13.904 4.10447 14.6913 4 15.5 4C21.299 4 26 9.37258 26 16ZM16.8125 12.6667C16.8125 9.35296 14.1682 6.66667 10.9062 6.66667C6.54176 6.66667 5 12.3381 5 16C5 22.6274 9.70101 28 15.5 28C18.6097 28 21.4037 26.455 23.3264 24H10.9062C11.1371 23.7009 11.3789 23.3928 11.6273 23.0762C13.9353 20.1341 16.8125 16.4665 16.8125 12.6667Z" fill="#7859CF"/>
<defs>
<clipPath id="clip0_5504_2481">
<rect width="32" height="32" fill="white"/>
</clipPath>
</defs>
</svg>
